<svg width="241" height="51" viewBox="0 0 241 51" fill="none" xmlns="http://www.w3.org/2000/svg">
<rect width="241" height="51" rx="5" fill="#FFD28F"/>
<path d="M21.008 22.1333H22.646L18.824 12.0813H17.13L13.28 22.1333H14.834L15.758 19.6413H20.098L21.008 22.1333ZM17.942 13.7613L19.636 18.3953H16.22L17.942 13.7613ZM25.3475 22.1333V12.0813H23.9195V22.1333H25.3475ZM28.7381 22.1333V12.0813H27.3101V22.1333H28.7381ZM35.3485 12.9913C35.3485 12.4453 34.9285 12.0533 34.3265 12.0533C33.7245 12.0533 33.2905 12.4453 33.2905 12.9913C33.2905 13.5233 33.7245 13.9293 34.3265 13.9293C34.9285 13.9293 35.3485 13.5233 35.3485 12.9913ZM35.0405 22.1333V14.7133H33.6265V22.1333H35.0405ZM42.8834 19.9213C42.8834 18.8573 42.1834 18.2133 40.7134 17.9473L39.4534 17.7093C38.5574 17.5413 38.1794 17.2613 38.1794 16.6593C38.1794 16.0153 38.7814 15.6373 39.6774 15.6373C40.6714 15.6373 41.3294 16.1553 41.4134 17.0513H42.7714C42.6454 15.5253 41.4414 14.5733 39.6634 14.5733C37.9414 14.5733 36.8074 15.4833 36.8074 16.7853C36.8074 17.9053 37.5774 18.6053 38.9494 18.8713L40.1534 19.0953C41.0774 19.2773 41.4554 19.5433 41.4554 20.1593C41.4554 20.8593 40.7974 21.2093 39.8034 21.2093C38.6694 21.2093 37.9274 20.6353 37.8714 19.7113H36.5134C36.6534 21.3073 37.8154 22.2733 39.7754 22.2733C41.7494 22.2733 42.8834 21.3773 42.8834 19.9213ZM53.485 22.1333H54.899L57.055 14.7133H55.655L54.157 20.1313L52.505 14.7133H51.105L49.425 20.1173L47.927 14.7133H46.541L48.683 22.1333H50.111L51.805 16.6173L53.485 22.1333ZM61.0965 22.2733C62.8465 22.2733 64.1205 21.2793 64.4845 19.6273H63.0845C62.8465 20.5933 62.1185 21.1673 61.0685 21.1673C59.8225 21.1673 59.0665 20.2853 58.9545 18.7733H64.4845C64.7365 16.3653 63.2665 14.5733 61.0545 14.5733C59.0105 14.5733 57.5125 16.1833 57.5125 18.3813C57.5125 20.7193 58.9545 22.2733 61.0965 22.2733ZM61.0265 15.6373C62.1745 15.6373 62.9165 16.4633 62.9865 17.8353H58.9685C59.1225 16.4493 59.8925 15.6373 61.0265 15.6373ZM67.4158 22.1333V12.0813H65.9878V22.1333H67.4158ZM70.8064 22.1333V12.0813H69.3784V22.1333H70.8064Z" fill="#121212"/>
<path d="M21.1545 41.1333H22.1145V32.5173H21.2625V39.7653L16.2825 32.5173H15.2865V41.1333H16.1265V33.7893L21.1545 41.1333ZM26.5358 41.2533C28.2878 41.2533 29.5478 39.8733 29.5478 37.9653C29.5478 36.0693 28.2878 34.7013 26.5358 34.7013C24.7958 34.7013 23.5358 36.0693 23.5358 37.9653C23.5358 39.8733 24.7958 41.2533 26.5358 41.2533ZM26.5358 40.5213C25.3118 40.5213 24.3878 39.5373 24.3878 37.9653C24.3878 36.4173 25.3118 35.4333 26.5358 35.4333C27.7718 35.4333 28.6958 36.4173 28.6958 37.9653C28.6958 39.5373 27.7718 40.5213 26.5358 40.5213ZM38.142 39.3693C38.142 38.4693 37.578 37.9413 36.318 37.7013L35.37 37.5213C34.434 37.3413 34.05 37.0413 34.05 36.4173C34.05 35.7573 34.662 35.3373 35.55 35.3373C36.546 35.3373 37.182 35.8533 37.266 36.7293H38.058C37.962 35.4693 37.002 34.6893 35.55 34.6893C34.17 34.6893 33.234 35.4333 33.234 36.4893C33.234 37.4013 33.87 37.9893 35.07 38.2173L35.982 38.3973C36.942 38.5893 37.302 38.8773 37.302 39.5013C37.302 40.2213 36.678 40.6173 35.646 40.6173C34.566 40.6173 33.858 40.0533 33.798 39.1533H32.994C33.114 40.4613 34.074 41.2533 35.646 41.2533C37.206 41.2533 38.142 40.5333 38.142 39.3693ZM43.6455 38.5773C43.6455 39.7053 42.9135 40.5213 41.9055 40.5213C41.0175 40.5213 40.3815 40.0293 40.3815 38.7453V34.8093H39.5415V38.9253C39.5415 40.5213 40.3935 41.2533 41.6775 41.2533C42.6015 41.2533 43.3695 40.7253 43.6935 39.9933V41.1333H44.4735V34.8093H43.6455V38.5773ZM51.0209 39.3693C51.0209 38.4693 50.4569 37.9413 49.1969 37.7013L48.2489 37.5213C47.3129 37.3413 46.9289 37.0413 46.9289 36.4173C46.9289 35.7573 47.5409 35.3373 48.4289 35.3373C49.4249 35.3373 50.0609 35.8533 50.1449 36.7293H50.9369C50.8409 35.4693 49.8809 34.6893 48.4289 34.6893C47.0489 34.6893 46.1129 35.4333 46.1129 36.4893C46.1129 37.4013 46.7489 37.9893 47.9489 38.2173L48.8609 38.3973C49.8209 38.5893 50.1809 38.8773 50.1809 39.5013C50.1809 40.2213 49.5569 40.6173 48.5249 40.6173C47.4449 40.6173 46.7369 40.0533 46.6769 39.1533H45.8729C45.9929 40.4613 46.9529 41.2533 48.5249 41.2533C50.0849 41.2533 51.0209 40.5333 51.0209 39.3693ZM58.2764 37.9653C58.2764 36.0333 57.1844 34.6893 55.5044 34.6893C54.5324 34.6893 53.6924 35.2413 53.2604 36.1773V34.8093H52.4804V43.4493H53.3204V39.8373C53.7524 40.7373 54.5564 41.2533 55.5044 41.2533C57.1844 41.2533 58.2764 39.9213 58.2764 37.9653ZM57.4244 37.9653C57.4244 39.5853 56.5964 40.5213 55.3604 40.5213C54.1604 40.5213 53.3084 39.5373 53.3084 37.9653C53.3084 36.3573 54.1844 35.4213 55.3604 35.4213C56.5964 35.4213 57.4244 36.3693 57.4244 37.9653ZM60.7208 33.3453C60.7208 32.9853 60.4448 32.7213 60.0368 32.7213C59.6408 32.7213 59.3648 32.9853 59.3648 33.3453C59.3648 33.7173 59.6408 33.9813 60.0368 33.9813C60.4448 33.9813 60.7208 33.7173 60.7208 33.3453ZM60.4688 41.1333V34.8093H59.6288V41.1333H60.4688ZM64.653 41.2653C66.141 41.2653 67.209 40.2933 67.437 38.6853H66.585C66.393 39.8613 65.685 40.5333 64.653 40.5333C63.477 40.5333 62.673 39.5013 62.673 37.9653C62.673 36.4533 63.477 35.4213 64.653 35.4213C65.673 35.4213 66.393 36.1053 66.585 37.2573H67.437C67.185 35.6733 66.129 34.6893 64.653 34.6893C62.997 34.6893 61.821 36.0453 61.821 37.9653C61.821 39.9093 62.985 41.2653 64.653 41.2653ZM69.8849 33.3453C69.8849 32.9853 69.6089 32.7213 69.2009 32.7213C68.8049 32.7213 68.5289 32.9853 68.5289 33.3453C68.5289 33.7173 68.8049 33.9813 69.2009 33.9813C69.6089 33.9813 69.8849 33.7173 69.8849 33.3453ZM69.6329 41.1333V34.8093H68.7929V41.1333H69.6329ZM73.985 41.2533C75.737 41.2533 76.997 39.8733 76.997 37.9653C76.997 36.0693 75.737 34.7013 73.985 34.7013C72.245 34.7013 70.985 36.0693 70.985 37.9653C70.985 39.8733 72.245 41.2533 73.985 41.2533ZM73.985 40.5213C72.761 40.5213 71.837 39.5373 71.837 37.9653C71.837 36.4173 72.761 35.4333 73.985 35.4333C75.221 35.4333 76.145 36.4173 76.145 37.9653C76.145 39.5373 75.221 40.5213 73.985 40.5213ZM82.3994 38.5773C82.3994 39.7053 81.6674 40.5213 80.6594 40.5213C79.7714 40.5213 79.1354 40.0293 79.1354 38.7453V34.8093H78.2954V38.9253C78.2954 40.5213 79.1474 41.2533 80.4314 41.2533C81.3554 41.2533 82.1234 40.7253 82.4474 39.9933V41.1333H83.2274V34.8093H82.3994V38.5773ZM89.7748 39.3693C89.7748 38.4693 89.2108 37.9413 87.9508 37.7013L87.0028 37.5213C86.0668 37.3413 85.6828 37.0413 85.6828 36.4173C85.6828 35.7573 86.2948 35.3373 87.1828 35.3373C88.1788 35.3373 88.8148 35.8533 88.8988 36.7293H89.6908C89.5948 35.4693 88.6348 34.6893 87.1828 34.6893C85.8028 34.6893 84.8668 35.4333 84.8668 36.4893C84.8668 37.4013 85.5028 37.9893 86.7028 38.2173L87.6148 38.3973C88.5748 38.5893 88.9348 38.8773 88.9348 39.5013C88.9348 40.2213 88.3108 40.6173 87.2788 40.6173C86.1988 40.6173 85.4908 40.0533 85.4308 39.1533H84.6268C84.7468 40.4613 85.7068 41.2533 87.2788 41.2533C88.8388 41.2533 89.7748 40.5333 89.7748 39.3693ZM97.6301 41.1333H98.3501V37.0173C98.3501 35.5533 97.4861 34.6893 96.0101 34.6893C94.5701 34.6893 93.5981 35.6253 93.5621 37.0293H94.3301C94.3421 35.9973 94.9901 35.3613 96.0221 35.3613C96.9821 35.3613 97.5461 35.9853 97.5461 37.0413V37.5693C96.9221 37.5213 96.6341 37.4973 96.2501 37.4973C94.3301 37.4973 93.3461 38.1453 93.3461 39.3813C93.3461 40.5213 94.1981 41.2533 95.5061 41.2533C96.4901 41.2533 97.2581 40.7733 97.6301 39.9813V41.1333ZM94.1501 39.3573C94.1501 38.4813 94.8461 38.0613 96.2861 38.0613C96.6341 38.0613 97.0061 38.0733 97.5461 38.1213V38.6853C97.5461 39.8733 96.8021 40.6413 95.6261 40.6413C94.7381 40.6413 94.1501 40.1253 94.1501 39.3573ZM102.481 41.2653C103.969 41.2653 105.037 40.2933 105.265 38.6853H104.413C104.221 39.8613 103.513 40.5333 102.481 40.5333C101.305 40.5333 100.501 39.5013 100.501 37.9653C100.501 36.4533 101.305 35.4213 102.481 35.4213C103.501 35.4213 104.221 36.1053 104.413 37.2573H105.265C105.013 35.6733 103.957 34.6893 102.481 34.6893C100.825 34.6893 99.6491 36.0453 99.6491 37.9653C99.6491 39.9093 100.813 41.2653 102.481 41.2653ZM109.873 40.3293C109.609 40.4373 109.393 40.4853 109.129 40.4853C108.433 40.4853 107.953 40.1493 107.953 39.1653V35.5173H109.933V34.8093H107.953V32.9373H107.113V34.8093H105.625V35.5173H107.113V39.3453C107.113 40.7133 107.917 41.2533 108.961 41.2533C109.273 41.2533 109.549 41.2053 109.873 41.0733V40.3293ZM112.295 33.3453C112.295 32.9853 112.019 32.7213 111.611 32.7213C111.215 32.7213 110.939 32.9853 110.939 33.3453C110.939 33.7173 111.215 33.9813 111.611 33.9813C112.019 33.9813 112.295 33.7173 112.295 33.3453ZM112.043 41.1333V34.8093H111.203V41.1333H112.043ZM118.735 34.8093H117.871L115.891 40.1493L113.911 34.8093H113.011L115.423 41.1333H116.299L118.735 34.8093ZM120.803 33.3453C120.803 32.9853 120.527 32.7213 120.119 32.7213C119.723 32.7213 119.447 32.9853 119.447 33.3453C119.447 33.7173 119.723 33.9813 120.119 33.9813C120.527 33.9813 120.803 33.7173 120.803 33.3453ZM120.551 41.1333V34.8093H119.711V41.1333H120.551ZM125.623 40.3293C125.359 40.4373 125.143 40.4853 124.879 40.4853C124.183 40.4853 123.703 40.1493 123.703 39.1653V35.5173H125.683V34.8093H123.703V32.9373H122.863V34.8093H121.375V35.5173H122.863V39.3453C122.863 40.7133 123.667 41.2533 124.711 41.2533C125.023 41.2533 125.299 41.2053 125.623 41.0733V40.3293ZM131.825 34.8093H130.973L129.041 40.0413L127.001 34.8093H126.101L128.609 41.0493L127.685 43.4493H128.585L131.825 34.8093ZM134.84 37.9653C134.84 39.9093 135.92 41.2533 137.624 41.2533C138.596 41.2533 139.412 40.7253 139.856 39.8013V41.1333H140.636V32.5173H139.796V36.1293C139.376 35.2293 138.572 34.6893 137.624 34.6893C135.92 34.6893 134.84 36.0213 134.84 37.9653ZM135.692 37.9653C135.692 36.3573 136.508 35.4213 137.744 35.4213C138.944 35.4213 139.808 36.3453 139.808 37.9413C139.808 39.5253 138.968 40.5213 137.744 40.5213C136.508 40.5213 135.692 39.5733 135.692 37.9653ZM144.941 41.2533C146.393 41.2533 147.461 40.4013 147.749 38.9973H146.921C146.717 40.0053 145.985 40.5933 144.929 40.5933C143.693 40.5933 142.901 39.6693 142.829 38.1693H147.725C147.869 36.1413 146.693 34.6893 144.893 34.6893C143.213 34.6893 141.989 36.0693 141.989 37.9173C141.989 39.9213 143.165 41.2533 144.941 41.2533ZM144.881 35.3373C146.045 35.3373 146.777 36.1773 146.849 37.5933H142.829C142.937 36.2133 143.741 35.3373 144.881 35.3373ZM152.353 40.3293C152.089 40.4373 151.873 40.4853 151.609 40.4853C150.913 40.4853 150.433 40.1493 150.433 39.1653V35.5173H152.413V34.8093H150.433V32.9373H149.593V34.8093H148.105V35.5173H149.593V39.3453C149.593 40.7133 150.397 41.2533 151.441 41.2533C151.753 41.2533 152.029 41.2053 152.353 41.0733V40.3293ZM155.968 41.2533C157.42 41.2533 158.488 40.4013 158.776 38.9973H157.948C157.744 40.0053 157.012 40.5933 155.956 40.5933C154.72 40.5933 153.928 39.6693 153.856 38.1693H158.752C158.896 36.1413 157.72 34.6893 155.92 34.6893C154.24 34.6893 153.016 36.0693 153.016 37.9173C153.016 39.9213 154.192 41.2533 155.968 41.2533ZM155.908 35.3373C157.072 35.3373 157.804 36.1773 157.876 37.5933H153.856C153.964 36.2133 154.768 35.3373 155.908 35.3373ZM162.387 41.2653C163.875 41.2653 164.943 40.2933 165.171 38.6853H164.319C164.127 39.8613 163.419 40.5333 162.387 40.5333C161.211 40.5333 160.407 39.5013 160.407 37.9653C160.407 36.4533 161.211 35.4213 162.387 35.4213C163.407 35.4213 164.127 36.1053 164.319 37.2573H165.171C164.919 35.6733 163.863 34.6893 162.387 34.6893C160.731 34.6893 159.555 36.0453 159.555 37.9653C159.555 39.9093 160.719 41.2653 162.387 41.2653ZM169.779 40.3293C169.515 40.4373 169.299 40.4853 169.035 40.4853C168.339 40.4853 167.859 40.1493 167.859 39.1653V35.5173H169.839V34.8093H167.859V32.9373H167.019V34.8093H165.531V35.5173H167.019V39.3453C167.019 40.7133 167.823 41.2533 168.867 41.2533C169.179 41.2533 169.455 41.2053 169.779 41.0733V40.3293ZM173.394 41.2533C174.846 41.2533 175.914 40.4013 176.202 38.9973H175.374C175.17 40.0053 174.438 40.5933 173.382 40.5933C172.146 40.5933 171.354 39.6693 171.282 38.1693H176.178C176.322 36.1413 175.146 34.6893 173.346 34.6893C171.666 34.6893 170.442 36.0693 170.442 37.9173C170.442 39.9213 171.618 41.2533 173.394 41.2533ZM173.334 35.3373C174.498 35.3373 175.23 36.1773 175.302 37.5933H171.282C171.39 36.2133 172.194 35.3373 173.334 35.3373ZM176.981 37.9653C176.981 39.9093 178.061 41.2533 179.765 41.2533C180.737 41.2533 181.553 40.7253 181.997 39.8013V41.1333H182.777V32.5173H181.937V36.1293C181.517 35.2293 180.713 34.6893 179.765 34.6893C178.061 34.6893 176.981 36.0213 176.981 37.9653ZM177.833 37.9653C177.833 36.3573 178.649 35.4213 179.885 35.4213C181.085 35.4213 181.949 36.3453 181.949 37.9413C181.949 39.5253 181.109 40.5213 179.885 40.5213C178.649 40.5213 177.833 39.5733 177.833 37.9653Z" fill="#545454"/>
</svg>
