<svg width="79" height="25" viewBox="0 0 79 25" fill="none" xmlns="http://www.w3.org/2000/svg">
<path d="M6.17414 18C5.96081 18 5.80081 17.8933 5.69414 17.68C5.41414 17.1333 5.11414 16.4467 4.79414 15.62C4.48747 14.7933 4.18747 13.9 3.89414 12.94C3.60081 11.9667 3.32081 10.9867 3.05414 10C2.80081 9.01333 2.58081 8.08 2.39414 7.2C2.22081 6.30667 2.08747 5.52667 1.99414 4.86C1.98081 4.76667 1.98081 4.69333 1.99414 4.64C2.02081 4.57333 2.08747 4.54 2.19414 4.54C2.20747 4.54 2.29414 4.54 2.45414 4.54C2.62747 4.54 2.82081 4.54 3.03414 4.54C3.24747 4.54 3.44081 4.54 3.61414 4.54C3.80081 4.54 3.91414 4.54 3.95414 4.54C4.04747 4.54 4.11414 4.56 4.15414 4.6C4.19414 4.62667 4.22081 4.69333 4.23414 4.8C4.30081 5.26667 4.41414 5.87333 4.57414 6.62C4.73414 7.36667 4.96081 8.32667 5.25414 9.5C5.46747 10.34 5.65414 11.0867 5.81414 11.74C5.98747 12.38 6.14747 12.94 6.29414 13.42C6.44081 13.8867 6.57414 14.28 6.69414 14.6C6.72081 14.6667 6.74081 14.72 6.75414 14.76C6.78081 14.7867 6.80747 14.8 6.83414 14.8C6.86081 14.8 6.87414 14.8 6.87414 14.8C6.87414 14.8 6.88747 14.8 6.91414 14.8C6.94081 14.8 6.96081 14.78 6.97414 14.74C7.00081 14.7 7.02081 14.6533 7.03414 14.6C7.12747 14.3733 7.22747 14.1 7.33414 13.78C7.45414 13.4467 7.58081 13.0867 7.71414 12.7C7.84747 12.3 7.97414 11.9 8.09414 11.5C8.21414 11.1 8.32747 10.72 8.43414 10.36C8.54081 10 8.62081 9.67333 8.67414 9.38C8.70081 8.95333 8.71414 8.48667 8.71414 7.98C8.72747 7.47333 8.72747 6.98667 8.71414 6.52C8.71414 6.05333 8.71414 5.66667 8.71414 5.36C8.71414 5.04 8.71414 4.86667 8.71414 4.84C8.70081 4.74667 8.70081 4.67333 8.71414 4.62C8.72747 4.55333 8.79414 4.52 8.91414 4.52C8.95414 4.52 9.05414 4.52 9.21414 4.52C9.38747 4.52 9.58081 4.52 9.79414 4.52C10.0075 4.52 10.2008 4.52 10.3741 4.52C10.5475 4.52 10.6541 4.52 10.6941 4.52C10.7741 4.52 10.8341 4.54 10.8741 4.58C10.9141 4.60667 10.9341 4.68 10.9341 4.8C10.9341 5.37333 10.9541 5.96 10.9941 6.56C11.0475 7.14667 11.1075 7.68667 11.1741 8.18C11.2408 8.66 11.3008 9.05333 11.3541 9.36C11.4875 10.2133 11.6808 11.0667 11.9341 11.92C12.1875 12.7733 12.4741 13.64 12.7941 14.52C12.8341 14.6267 12.8608 14.7 12.8741 14.74C12.9008 14.78 12.9275 14.8 12.9541 14.8C12.9808 14.8 12.9941 14.8 12.9941 14.8C13.0075 14.8 13.0208 14.8 13.0341 14.8C13.0741 14.8 13.1075 14.7533 13.1341 14.66C13.2141 14.4733 13.3275 14.16 13.4741 13.72C13.6208 13.2667 13.7941 12.7067 13.9941 12.04C14.1941 11.36 14.4008 10.5933 14.6141 9.74C14.7741 9.15333 14.9075 8.64667 15.0141 8.22C15.1208 7.79333 15.2141 7.4 15.2941 7.04C15.3741 6.68 15.4475 6.32667 15.5141 5.98C15.5808 5.63333 15.6475 5.26 15.7141 4.86C15.7408 4.72667 15.7741 4.64 15.8141 4.6C15.8541 4.56 15.9141 4.54 15.9941 4.54C16.0341 4.54 16.1408 4.54 16.3141 4.54C16.4875 4.54 16.6741 4.54 16.8741 4.54C17.0875 4.54 17.2808 4.54 17.4541 4.54C17.6275 4.54 17.7341 4.54 17.7741 4.54C17.9608 4.54 18.0208 4.66 17.9541 4.9C17.8475 5.47333 17.6941 6.19333 17.4941 7.06C17.2941 7.91333 17.0608 8.84 16.7941 9.84C16.5408 10.84 16.2741 11.84 15.9941 12.84C15.7141 13.8267 15.4275 14.7467 15.1341 15.6C14.8408 16.44 14.5541 17.1333 14.2741 17.68C14.2608 17.7333 14.2208 17.8 14.1541 17.88C14.0875 17.96 13.9941 18 13.8741 18C13.7675 18 13.6008 18 13.3741 18C13.1608 18 12.9408 18 12.7141 18C12.5008 18 12.3341 18 12.2141 18C12.1341 18 12.0541 17.9533 11.9741 17.86C11.9075 17.7667 11.8608 17.7067 11.8341 17.68C11.6608 17.32 11.4675 16.9 11.2541 16.42C11.0541 15.9267 10.8608 15.4 10.6741 14.84C10.4875 14.2667 10.3008 13.6867 10.1141 13.1C10.0741 12.9533 10.0275 12.8533 9.97414 12.8C9.92081 12.7467 9.85414 12.84 9.77414 13.08C9.56081 13.76 9.37414 14.34 9.21414 14.82C9.06747 15.2867 8.93414 15.6867 8.81414 16.02C8.70747 16.3533 8.60081 16.6533 8.49414 16.92C8.38747 17.1733 8.27414 17.4267 8.15414 17.68C8.11414 17.7867 8.04747 17.8667 7.95414 17.92C7.87414 17.9733 7.80747 18 7.75414 18C7.64747 18 7.48081 18 7.25414 18C7.04081 18 6.82747 18 6.61414 18C6.41414 18 6.26747 18 6.17414 18ZM41.6601 18C40.7801 18 40.1201 17.82 39.6801 17.46C39.2534 17.0867 38.9734 16.56 38.8401 15.88C38.7334 15.32 38.6734 14.74 38.6601 14.14C38.6467 13.54 38.6401 12.9333 38.6401 12.32C38.6401 11.92 38.6467 11.5533 38.6601 11.22C38.6734 10.8867 38.6867 10.5333 38.7001 10.16C38.7001 10.0267 38.6401 9.96 38.5201 9.96H37.6401C37.5601 9.96 37.5001 9.94667 37.4601 9.92C37.4334 9.89333 37.4201 9.82667 37.4201 9.72V8.82C37.4201 8.68667 37.4334 8.61333 37.4601 8.6C37.5001 8.57333 37.5734 8.56 37.6801 8.56H38.5801C38.6734 8.56 38.7267 8.54 38.7401 8.5C38.7534 8.44667 38.7667 8.36667 38.7801 8.26L38.8601 6.7C38.8601 6.55333 38.9334 6.48 39.0801 6.48H40.8001C40.8534 6.48 40.9067 6.5 40.9601 6.54C41.0267 6.58 41.0534 6.63333 41.0401 6.7L40.9401 8.26C40.9267 8.39333 40.9267 8.48 40.9401 8.52C40.9667 8.54667 41.0201 8.56 41.1001 8.56H42.9801C43.1001 8.56 43.1667 8.57333 43.1801 8.6C43.2067 8.62667 43.2201 8.70667 43.2201 8.84V9.7C43.2201 9.80667 43.2001 9.88 43.1601 9.92C43.1334 9.94667 43.0667 9.96 42.9601 9.96H41.0801C41.0134 9.96 40.9601 9.98 40.9201 10.02C40.8801 10.06 40.8601 10.1267 40.8601 10.22C40.8467 10.5933 40.8334 10.9733 40.8201 11.36C40.8201 11.7333 40.8134 12.12 40.8001 12.52C40.8001 13 40.8067 13.4933 40.8201 14C40.8467 14.5067 40.9134 14.9933 41.0201 15.46C41.0867 15.7533 41.2067 15.9667 41.3801 16.1C41.5534 16.2333 41.7934 16.3 42.1001 16.3C42.2734 16.3 42.4401 16.28 42.6001 16.24C42.7601 16.1867 42.9067 16.14 43.0401 16.1C43.1734 16.02 43.2534 15.9933 43.2801 16.02C43.3201 16.0467 43.3601 16.12 43.4001 16.24L43.7201 17.26C43.7601 17.3533 43.7467 17.4333 43.6801 17.5C43.6134 17.5667 43.4734 17.64 43.2601 17.72C43.1134 17.7733 42.9401 17.8267 42.7401 17.88C42.5534 17.92 42.3667 17.9533 42.1801 17.98C41.9934 17.9933 41.8201 18 41.6601 18ZM48.6198 18.14C47.7664 18.14 47.0664 18.02 46.5198 17.78C45.9731 17.5267 45.5464 17.18 45.2398 16.74C44.9464 16.2867 44.7331 15.7667 44.5998 15.18C44.4798 14.58 44.4198 13.9467 44.4198 13.28C44.4198 12.6533 44.4864 12.0533 44.6198 11.48C44.7531 10.9067 44.9731 10.3867 45.2798 9.92C45.5864 9.45333 46.0064 9.08667 46.5398 8.82C47.0731 8.55333 47.7598 8.42 48.5998 8.42C49.1731 8.42 49.6731 8.48 50.0998 8.6C50.5264 8.72 50.8998 8.90667 51.2198 9.16C51.2998 9.25333 51.3531 9.32 51.3798 9.36C51.4064 9.4 51.4198 9.46667 51.4198 9.56V10.86C51.4198 10.9667 51.3864 11.0267 51.3198 11.04C51.2531 11.04 51.1931 11.0133 51.1398 10.96C50.8064 10.6667 50.4464 10.4733 50.0598 10.38C49.6731 10.2733 49.2798 10.22 48.8798 10.22C48.4798 10.22 48.1331 10.3067 47.8398 10.48C47.5464 10.6533 47.3131 10.8867 47.1398 11.18C46.9664 11.4733 46.8331 11.8067 46.7398 12.18C46.6598 12.54 46.6198 12.9133 46.6198 13.3C46.6198 13.94 46.6931 14.5 46.8398 14.98C46.9998 15.4467 47.2398 15.8067 47.5598 16.06C47.8798 16.3133 48.2798 16.44 48.7598 16.44C49.0931 16.44 49.4131 16.4 49.7198 16.32C50.0398 16.24 50.3731 16.12 50.7198 15.96C50.9198 15.8533 51.0598 15.8933 51.1398 16.08L51.5598 17.06C51.6131 17.1533 51.6264 17.2267 51.5998 17.28C51.5864 17.3333 51.5398 17.38 51.4598 17.42C51.1131 17.6733 50.6798 17.86 50.1598 17.98C49.6531 18.0867 49.1398 18.14 48.6198 18.14ZM52.8243 17.78C52.8243 15.5 52.8243 13.2133 52.8243 10.92C52.8243 8.62667 52.8243 6.34 52.8243 4.06C52.8243 3.91333 52.911 3.84 53.0843 3.84C53.3643 3.84 53.651 3.84 53.9443 3.84C54.251 3.84 54.5443 3.84 54.8243 3.84C54.971 3.84 55.0443 3.91333 55.0443 4.06C55.0443 4.79333 55.0443 5.53333 55.0443 6.28C55.0443 7.02667 55.0443 7.76667 55.0443 8.5C55.0443 8.60667 55.0643 8.67333 55.1043 8.7C55.1576 8.71333 55.2176 8.70667 55.2843 8.68C55.4576 8.64 55.6976 8.59333 56.0043 8.54C56.3243 8.47333 56.631 8.44 56.9243 8.44C57.4976 8.44 57.9976 8.52667 58.4243 8.7C58.851 8.86 59.2043 9.12667 59.4843 9.5C59.7776 9.86 59.9976 10.3467 60.1443 10.96C60.291 11.56 60.3776 12.2867 60.4043 13.14C60.4176 13.6867 60.411 14.2467 60.3843 14.82C60.3576 15.3933 60.3176 15.94 60.2643 16.46C60.211 16.98 60.1576 17.4333 60.1043 17.82C60.091 17.9 60.0576 17.9533 60.0043 17.98C59.951 17.9933 59.8776 18 59.7843 18C59.531 18 59.271 18 59.0043 18C58.7376 18 58.4776 18 58.2243 18C58.0376 18 57.931 17.98 57.9043 17.94C57.891 17.9 57.9043 17.78 57.9443 17.58C58.011 17.0333 58.0576 16.4467 58.0843 15.82C58.1243 15.18 58.151 14.5533 58.1643 13.94C58.1643 13.3 58.131 12.74 58.0643 12.26C58.011 11.78 57.911 11.38 57.7643 11.06C57.631 10.74 57.451 10.5 57.2243 10.34C56.9976 10.18 56.7176 10.1 56.3843 10.1C56.2243 10.1 56.051 10.12 55.8643 10.16C55.6776 10.1867 55.5043 10.22 55.3443 10.26C55.251 10.2867 55.1776 10.34 55.1243 10.42C55.071 10.4867 55.0443 10.5867 55.0443 10.72V17.78C55.0443 17.9267 54.971 18 54.8243 18H53.0843C52.911 18 52.8243 17.9267 52.8243 17.78ZM61.9402 13.26C61.9402 12.6333 62.0002 12.0333 62.1202 11.46C62.2536 10.8867 62.4736 10.3733 62.7802 9.92C63.0869 9.45333 63.5069 9.08667 64.0402 8.82C64.5869 8.55333 65.2736 8.42 66.1002 8.42C66.9669 8.42 67.6536 8.54 68.1602 8.78C68.6802 9.02 69.0669 9.34667 69.3202 9.76C69.5869 10.16 69.7602 10.6067 69.8402 11.1C69.9336 11.58 69.9802 12.06 69.9802 12.54C69.9802 13.0867 69.9202 13.44 69.8002 13.6C69.6802 13.76 69.5002 13.84 69.2602 13.84H64.3602C64.2936 13.84 64.2402 13.8533 64.2002 13.88C64.1736 13.9067 64.1602 13.9733 64.1602 14.08C64.1602 14.5467 64.2536 14.9667 64.4402 15.34C64.6402 15.7133 64.9202 16.0067 65.2802 16.22C65.6536 16.4333 66.1002 16.54 66.6202 16.54C67.0602 16.54 67.4936 16.4733 67.9202 16.34C68.3469 16.2067 68.6736 16.08 68.9002 15.96C69.0469 15.88 69.1602 15.8333 69.2402 15.82C69.3202 15.7933 69.4069 15.8733 69.5002 16.06L69.8802 16.78C69.9469 16.9133 69.9602 17.0067 69.9202 17.06C69.8936 17.1133 69.8136 17.18 69.6802 17.26C69.2402 17.5667 68.7002 17.7933 68.0602 17.94C67.4202 18.0733 66.7736 18.14 66.1202 18.14C65.2669 18.14 64.5669 18.0133 64.0202 17.76C63.4736 17.5067 63.0469 17.16 62.7402 16.72C62.4469 16.2667 62.2402 15.7467 62.1202 15.16C62.0002 14.56 61.9402 13.9267 61.9402 13.26ZM67.7402 12.18C67.7402 11.78 67.6869 11.4267 67.5802 11.12C67.4869 10.8 67.3136 10.5533 67.0602 10.38C66.8202 10.1933 66.4869 10.1 66.0602 10.1C65.7269 10.1 65.4402 10.1667 65.2002 10.3C64.9736 10.42 64.7869 10.5867 64.6402 10.8C64.5069 11 64.4002 11.22 64.3202 11.46C64.2402 11.7 64.1869 11.9333 64.1602 12.16C64.1602 12.3467 64.1669 12.4667 64.1802 12.52C64.1936 12.56 64.2536 12.58 64.3602 12.58H67.4802C67.6002 12.58 67.6736 12.56 67.7002 12.52C67.7402 12.48 67.7536 12.3667 67.7402 12.18ZM74.7362 8.48C75.6828 8.48 76.4695 8.61333 77.0962 8.88C77.2028 8.93333 77.2695 8.98 77.2962 9.02C77.3228 9.06 77.3295 9.12 77.3162 9.2L76.9962 10.3C76.9828 10.4067 76.9562 10.4667 76.9162 10.48C76.8762 10.4933 76.8028 10.4867 76.6962 10.46C76.4695 10.38 76.2162 10.3267 75.9362 10.3C75.6562 10.26 75.4228 10.24 75.2362 10.24C75.0228 10.24 74.8295 10.2533 74.6562 10.28C74.4962 10.3067 74.3562 10.34 74.2362 10.38C74.1295 10.4067 74.0428 10.4333 73.9762 10.46C73.9228 10.5 73.8628 10.5467 73.7962 10.6C73.7295 10.6533 73.6962 10.7733 73.6962 10.96V17.64C73.6962 17.8 73.6762 17.9 73.6362 17.94C73.5962 17.98 73.5162 18 73.3962 18H71.7162C71.6628 18 71.6095 17.9867 71.5562 17.96C71.5162 17.92 71.4962 17.8333 71.4962 17.7V9.64C71.4962 9.44 71.5228 9.31333 71.5762 9.26C71.6295 9.19333 71.7162 9.12667 71.8362 9.06C72.2362 8.87333 72.7095 8.73333 73.2562 8.64C73.8028 8.53333 74.2962 8.48 74.7362 8.48Z" fill="#024FA9"/>
<mask id="mask0_25_309" style="mask-type:luminance" maskUnits="userSpaceOnUse" x="19" y="3" width="16" height="16">
<path fill-rule="evenodd" clip-rule="evenodd" d="M27 17.375C30.7279 17.375 33.75 14.2542 33.75 12.125C33.75 9.99575 30.7279 6.875 27 6.875C23.2721 6.875 20.25 9.998 20.25 12.125C20.25 14.252 23.2721 17.375 27 17.375Z" fill="white" stroke="white" stroke-width="2" stroke-linejoin="round"/>
<path d="M27 14.375C27.5967 14.375 28.169 14.1379 28.591 13.716C29.0129 13.294 29.25 12.7217 29.25 12.125C29.25 11.5283 29.0129 10.956 28.591 10.534C28.169 10.1121 27.5967 9.875 27 9.875C26.4033 9.875 25.831 10.1121 25.409 10.534C24.9871 10.956 24.75 11.5283 24.75 12.125C24.75 12.7217 24.9871 13.294 25.409 13.716C25.831 14.1379 26.4033 14.375 27 14.375Z" fill="black" stroke="black" stroke-width="2" stroke-linejoin="round"/>
<path d="M22.974 6.22475L23.9467 7.58225M31.3594 6.39125L30.3862 7.74875M27.0034 4.625V6.875" stroke="white" stroke-width="2" stroke-linecap="round"/>
</mask>
<g mask="url(#mask0_25_309)">
<path d="M18 2H36V20H18V2Z" fill="#024FA9"/>
</g>
</svg>
